<?xml version="1.0" encoding="UTF-8" standalone="no"?>
<!-- Created with Inkscape (http://www.inkscape.org/) -->

<svg
   xmlns:dc="http://purl.org/dc/elements/1.1/"
   xmlns:cc="http://creativecommons.org/ns#"
   xmlns:rdf="http://www.w3.org/1999/02/22-rdf-syntax-ns#"
   xmlns:svg="http://www.w3.org/2000/svg"
   xmlns="http://www.w3.org/2000/svg"
   xmlns:sodipodi="http://sodipodi.sourceforge.net/DTD/sodipodi-0.dtd"
   xmlns:inkscape="http://www.inkscape.org/namespaces/inkscape"
   width="210mm"
   height="297mm"
   viewBox="0 0 744.09448819 1052.3622047"
   id="svg2"
   version="1.1"
   inkscape:version="0.91 r"
   sodipodi:docname="drawing2.svg">
  <defs
     id="defs4" />
  <sodipodi:namedview
     id="base"
     pagecolor="#ffffff"
     bordercolor="#666666"
     borderopacity="1.0"
     inkscape:pageopacity="0.0"
     inkscape:pageshadow="2"
     inkscape:zoom="0.35"
     inkscape:cx="375"
     inkscape:cy="520"
     inkscape:document-units="px"
     inkscape:current-layer="layer1"
     showgrid="false"
     inkscape:window-width="1301"
     inkscape:window-height="744"
     inkscape:window-x="65"
     inkscape:window-y="24"
     inkscape:window-maximized="1" />
  <metadata
     id="metadata7">
    <rdf:RDF>
      <cc:Work
         rdf:about="">
        <dc:format>image/svg+xml</dc:format>
        <dc:type
           rdf:resource="http://purl.org/dc/dcmitype/StillImage" />
        <dc:title></dc:title>
      </cc:Work>
    </rdf:RDF>
  </metadata>
  <g
     inkscape:label="Layer 1"
     inkscape:groupmode="layer"
     id="layer1">
    <path
       style="fill:#000000"
       id="path3359"
       d="m 478.3477,80.340242 c -6.55933,2.215019 -12.86074,4.860161 -19.70135,6.235609 -5.96863,1.016859 -12.0361,1.076495 -18.07306,1.123761 -5.72312,0.01054 -11.4462,-0.02343 -17.16929,-0.03989 -4.79624,1.422094 -9.70903,2.125344 -14.6821,2.512218 -5.56433,0.337292 -11.14172,0.335585 -16.71405,0.348346 -5.71772,0.0016 -11.43543,-0.01025 -17.15314,-0.01612 -5.37165,0.556719 -10.44177,-1.160773 -15.6761,-2.00382 -5.24394,-0.713035 -10.54497,-0.783013 -15.82798,-0.853396 -5.68593,-0.04644 -11.37213,-0.02797 -17.05817,-0.02039 -5.55411,0.578255 -10.76127,-0.500017 -16.1448,-1.598545 -5.09243,-0.939647 -10.28041,-1.082065 -15.44324,-1.200861 -5.82728,0.188484 -11.46203,-0.08565 -17.17861,-1.158579 -5.61109,-1.098462 -11.31884,-1.441481 -17.02002,-1.641587 -5.69472,-0.145396 -11.39197,-0.126312 -17.08807,-0.121859 -5.71379,0.0083 -11.42758,0.01455 -17.14138,0.01794 -5.71454,0.0028 -11.42909,0.0029 -17.14363,0.003 -5.52648,0.351889 -11.25495,-0.755393 -16.6584,0.591222 -4.68374,1.714964 -9.85821,1.077494 -14.50167,2.702644 -4.60789,0.794715 -8.75548,2.735071 -13.22396,3.963719 -4.75903,0.530651 -9.01247,2.538257 -13.72531,3.367719 -2.5675,1.83451 -5.7752,1.862787 -8.62895,2.813519 -1.38396,0.46107 -2.63582,1.256427 -3.99398,1.78875 -4.11279,1.319056 -7.8389,3.575168 -11.7038,5.489428 -4.09423,1.45686 -8.60079,2.48315 -12.28205,4.85132 -0.64763,0.30366 -1.2768,0.65028 -1.9429,0.91096 -5.14835,2.01485 0.66299,-0.77945 -3.85633,1.87724 -0.61163,0.35955 -2.52308,1.29666 -1.90901,0.94128 36.52055,-21.135112 45.41037,-27.484958 32.91652,-18.671426 -84.952041,49.035046 -18.92354,10.894536 -3.5791,2.142718 0.60818,-0.34688 -1.14392,0.811462 -1.75168,1.159079 -12.75142,7.293359 -25.44594,14.690199 -38.321806,21.761539 -2.962271,0.6934 -1.593745,0.14916 -4.126234,1.5798 -14.280575,5.89586 -2.987947,1.33239 32.62804,-18.8847 0.54639,-0.31016 -1.12047,0.58366 -1.6166,0.96914 -1.60835,1.24964 -2.9141,2.83068 -4.55366,4.07388 -3.66978,2.59102 -6.41141,6.00359 -9.24393,9.42865 -2.66659,3.39882 -5.43559,6.74888 -8.51255,9.78647 -2.476044,3.18344 -4.880428,6.44994 -7.237681,9.73057 -1.876679,3.94428 -3.282824,8.19528 -4.461657,12.41269 -1.120984,4.34947 -2.859219,8.48995 -4.675262,12.58331 -1.538981,4.43246 -2.187377,9.08426 -3.432695,13.60943 -1.341361,4.95096 -1.609309,10.08452 -1.806824,15.18289 -0.362037,4.6374 0.724798,9.10446 2.437068,13.36847 1.944568,3.20092 5.042149,5.18499 8.595731,6.16627 4.847044,0.25064 8.989054,2.0729 13.23115,4.2204 4.32719,1.30427 6.88656,5.12998 9.97767,8.13071 2.71066,3.19626 5.69399,6.1047 8.36256,9.34691 3.092,4.13001 6.49364,8.00106 9.72321,12.01805 3.61766,3.42367 6.33604,7.64277 9.55776,11.40788 2.85904,3.56144 5.76611,7.17759 9.13944,10.27166 2.64546,2.99773 5.17702,5.93073 9.02598,7.26505 3.76525,2.59692 8.1275,3.23912 12.56765,3.65885 5.46533,0.3701 10.94779,0.33262 16.42257,0.33014 5.83434,0.13941 10.47505,0.21713 16.14422,-1.20891 5.19099,-0.61904 10.13169,-2.11629 15.23153,-3.18516 5.27748,-0.37724 10.07716,-2.48121 15.25852,-3.39309 0.85644,-0.10491 1.73203,-0.10636 2.56934,-0.31474 1.47541,-0.36718 2.82016,-1.15219 4.28026,-1.57622 2.34752,-0.68173 4.43898,-0.86818 6.65314,-1.94704 3.9585,-1.63138 8.33372,-2.86854 11.86693,-5.3311 4.07349,-2.62202 9.09414,-1.95368 13.44996,-3.57416 4.60016,-0.81297 8.76287,-2.71852 13.23594,-3.93153 4.90361,-0.31692 9.40138,-1.88468 14.1384,-2.97274 5.21283,-0.97841 10.53324,-1.07243 15.81983,-1.17021 5.16558,-0.23919 10.04844,1.50539 14.72066,3.47913 4.33737,1.12947 8.24333,3.20745 12.63841,4.16752 4.38954,2.17173 9.07777,3.76264 13.37544,6.08941 4.29474,1.66759 8.54097,3.54773 12.95775,4.90063 3.9647,1.79671 7.71783,4.08053 11.80778,5.58008 3.67523,2.39232 7.88134,3.56942 11.90295,5.23011 4.24166,1.61318 8.31346,3.68481 12.55642,5.36764 4.43348,2.09469 9.33432,3.18954 13.78636,5.19932 4.4156,1.64707 9.01234,2.56234 13.54987,3.80785 6.37824,1.09765 12.62189,2.77543 19.02552,3.77444 6.26298,1.18082 12.38395,2.6641 18.76871,3.26265 6.84758,0.33803 13.05195,3.65341 19.71454,5.14767 5.3565,0.37135 10.43943,1.63685 15.65518,2.7852 3.63226,-0.33063 7.45137,-1.91554 10.3302,-4.18023 33.63263,-17.37578 -118.06588,66.97658 7.33395,-3.86852 11.04428,-6.23951 -43.30734,26.3172 -33.07626,18.81836 2.9582,-2.8427 5.00011,-6.34016 6.94951,-9.90856 2.24315,-3.75127 3.56523,-7.87619 5.24673,-11.87773 1.40797,-4.23679 3.04266,-8.41395 4.3235,-12.694 0.92776,-4.38779 3.40044,-8.106 5.37575,-12.0479 2.12209,-3.63709 4.17671,-7.3349 5.94481,-11.16026 1.98165,-3.76123 3.9854,-7.52316 5.73431,-11.40102 1.72905,-3.81009 4.43664,-6.94418 6.9771,-10.20573 2.19835,-3.48847 4.55927,-6.89851 7.359,-9.93322 2.57223,-3.25816 4.4241,-6.97241 7.63896,-9.67179 12.39204,-11.11681 3.16927,-3.03468 39.65673,-23.54284 0.67355,-0.37857 1.53419,-0.25905 2.25453,-0.53852 2.10348,-0.81608 3.83582,-1.87125 6.0647,-2.49751 4.30963,-2.15311 9.07172,-3.74353 13.04123,-6.49157 3.78962,-2.16976 8.17928,-3.43909 11.7353,-5.9641 13.60381,-6.79537 6.28268,-3.1847 -32.69295,18.93935 -0.60018,0.34068 1.11589,-0.81252 1.68229,-1.20682 1.94303,-1.35263 3.89431,-2.68562 5.89568,-3.95001 23.3073,-14.65699 77.60903,-44.77628 5.86133,-3.80946 -0.6487,0.37039 1.23355,-0.84586 1.88243,-1.21595 12.78251,-7.29065 25.38765,-14.90881 38.40862,-21.7645 11.7254,-6.17356 -23.01321,13.14467 -34.51982,19.717 100.61275,-57.86786 4.83707,-2.73061 3.6296,-2.04477 -0.60399,0.34306 1.11876,-0.82387 1.68765,-1.22245 1.64185,-1.15032 3.12041,-2.41636 4.68911,-3.66509 2.80204,-2.80895 6.00174,-5.23136 8.13593,-8.61267 2.06005,-4.55896 2.09773,-9.66118 2.25442,-14.57388 0.0865,-4.36138 -1.92709,-7.63897 -4.2975,-11.06088 -2.5747,-3.01876 -5.58065,-5.60778 -8.23599,-8.54612 -2.85909,-3.21685 -6.43688,-5.55872 -9.71839,-8.28547 -3.59689,-2.64475 -7.78847,-4.28796 -11.54017,-6.64559 -3.58283,-2.17411 -7.03238,-4.52214 -10.67963,-6.61627 -3.79196,-1.80499 -7.45014,-3.85007 -11.19431,-5.77633 -4.34931,-1.01483 -8.03854,-3.21189 -11.83586,-5.44254 -3.93674,-1.691473 -8.11334,-2.977135 -11.85351,-5.088876 -3.98106,-2.416596 -8.72352,-2.128865 -13.01364,-3.49964 -4.56974,-1.813603 -9.57293,-1.477688 -14.21365,-2.851123 -4.66207,-1.566594 -9.55415,-1.980636 -14.42971,-2.253537 -4.73693,-1.500388 -9.58882,-2.297641 -14.52634,-2.707549 -5.15414,0.206023 -9.98699,-1.533076 -15.01507,-2.353785 -5.24342,-0.708695 -10.54414,-0.766645 -15.82601,-0.831179 -2.95634,0.244627 -5.81858,-0.576887 -8.69374,-1.122077 0,0 34.59332,-24.267307 34.59332,-24.267307 l 0,0 c 2.7721,0.400275 5.53778,0.709204 8.34813,0.605964 5.44596,0.139376 10.91436,0.331728 16.28174,1.346785 4.91125,0.989227 9.76505,2.046381 14.80691,2.109945 4.87269,0.620628 9.59884,1.857947 14.44065,2.611173 5.03614,0.471244 9.99026,1.324305 14.85186,2.750615 4.80882,0.765756 9.63832,1.387889 14.28301,2.937933 4.68656,0.90203 9.37849,1.736334 13.55233,4.220189 4.02062,1.739246 8.12596,3.3171 12.01821,5.325261 3.72529,2.221036 7.7679,3.546872 11.72278,5.279012 3.74532,2.042989 7.59819,3.875544 11.3223,5.961162 3.53819,2.210201 7.0606,4.438506 10.63678,6.578538 4.07922,2.165317 8.1487,4.402636 11.83871,7.197726 3.5533,2.72919 7.06568,5.45334 10.10476,8.7722 2.88616,2.98964 5.93785,5.82245 8.54171,9.07495 2.86172,4.12734 5.15568,8.31382 5.44261,13.46952 -0.0746,5.37215 -0.10104,10.81226 -1.39148,16.06044 -1.38793,4.23288 -3.94127,7.36508 -7.49791,10.00779 -1.68283,2.04312 -3.85339,4.14829 -6.14029,5.49955 -41.49932,24.52083 -57.68947,33.75059 -3.49582,2.43611 -125.33696,71.76408 84.40064,-49.00056 -44.00119,25.30321 -10.7241,6.20583 47.98532,-28.49572 32.15363,-18.6497 -2.2492,1.9483 -4.90841,3.68253 -7.48536,5.20191 -12.62992,7.44662 -25.27691,14.86428 -37.92574,22.27874 -0.60696,0.35579 -1.22751,0.68788 -1.84127,1.03181 -4.01609,1.73259 -7.81961,3.93824 -11.70425,5.94146 -4.4935,2.00162 -8.77689,4.46387 -13.50353,5.92807 -1.99588,0.86205 -4.04511,1.66563 -6.02124,2.5594 -0.6559,0.29666 -2.52661,1.38016 -1.90622,1.01502 43.07621,-25.35297 45.35549,-26.73448 32.67161,-19.09939 -4.0649,3.92515 1.13999,-0.8501 -3.18181,2.3586 -2.14501,1.59255 -3.35959,4.52891 -4.69968,6.73487 -2.39981,3.24581 -5.4585,5.92624 -7.60761,9.3859 -1.83167,3.80248 -5.19755,6.27705 -7.05014,10.05273 -2.40379,3.49258 -3.65726,7.72614 -5.72033,11.43006 -2.41516,3.46939 -3.68832,7.67756 -5.87624,11.3044 -2.49668,3.26654 -4.06066,7.26379 -5.97276,10.88912 -0.95325,4.58916 -2.97564,8.69026 -4.02916,13.23864 -0.53234,1.31161 -1.2919,2.52717 -1.7762,3.85726 -1.0114,2.7777 -1.2747,5.83315 -3.42171,8.11675 -0.79225,2.20977 -1.85913,3.70157 -2.96445,5.6996 -1.05831,1.91305 -1.47992,4.06387 -3.42817,5.40384 -9.16674,14.84711 4.93325,-7.32392 -39.05767,24.27593 -10.77914,7.74295 46.29237,-25.96005 34.47608,-19.91701 -14.20366,7.26399 -27.72256,16.17554 -41.82475,23.80766 -4.04957,1.48289 -7.72421,3.02532 -12.11386,1.64343 -5.17376,-1.24189 -10.42419,-1.78705 -15.61709,-2.9268 -6.36696,-1.7986 -12.48951,-4.68295 -19.22363,-4.75791 -6.42464,-0.76249 -12.63843,-2.37426 -19.0118,-3.42708 -6.48416,-1.23008 -12.93746,-2.6603 -19.38771,-4.03683 -4.64845,-1.30845 -9.45771,-2.08321 -13.86249,-4.15922 -4.65635,-1.59997 -9.17588,-3.46857 -13.76193,-5.25591 -4.21498,-1.78318 -8.3756,-3.68326 -12.63617,-5.34914 -3.99644,-1.6915 -8.14215,-3.00103 -11.8998,-5.22526 -3.87765,-1.79061 -7.66407,-3.78441 -11.6369,-5.36726 -4.45617,-1.68217 -8.9748,-3.256 -13.24064,-5.38264 -4.24638,-1.91009 -8.48001,-3.92209 -12.91254,-5.36077 -4.38379,-1.34413 -8.59791,-3.18301 -12.96189,-4.59245 -4.35046,-1.67793 -8.94229,-2.47847 -13.61511,-2.10706 -5.15842,0.22471 -10.34545,0.55037 -15.34366,1.95203 -4.64046,1.26936 -9.40789,1.75082 -14.00804,3.16662 -4.375,1.54058 -8.86356,2.56053 -13.33788,3.7805 -4.55837,0.76527 -8.93696,1.83473 -12.88054,4.37554 -4.0858,1.60901 -8.00322,3.59224 -12.24421,4.8118 -4.61664,1.08326 -9.08801,2.68622 -13.79383,3.37624 -5.03758,1.27489 -10.02878,2.60521 -15.17536,3.39718 -5.08595,1.24371 -10.2135,2.1677 -15.35733,3.14074 -5.48511,0.82293 -11.04792,0.36802 -16.57738,0.48069 -5.60115,-0.0301 -11.22421,-0.0264 -16.79019,-0.73426 -4.73977,-0.78705 -9.19288,-2.17403 -13.34651,-4.65213 -3.88508,-2.12108 -6.88032,-5.1993 -9.81291,-8.48479 -3.31007,-3.3668 -6.40134,-6.95936 -9.26734,-10.7099 -3.16033,-3.85984 -6.17028,-7.84851 -9.653937,-11.43614 -3.224478,-3.97948 -6.422767,-7.98102 -9.68843,-11.92256 -2.678041,-3.07264 -5.553455,-5.95682 -8.230375,-9.02921 -2.755854,-2.85674 -5.287563,-5.71604 -9.210378,-6.96641 -4.144473,-2.00148 -8.582316,-2.61917 -12.974858,-3.86954 -4.334718,-1.96975 -8.106633,-4.92474 -10.440685,-9.15857 -1.937924,-4.75873 -3.408455,-9.7746 -3.156668,-14.97485 0.119411,-5.34407 0.255132,-10.72237 1.316115,-15.97995 1.117618,-4.70338 2.555072,-9.23672 3.19262,-14.05118 1.392214,-4.14082 3.546916,-7.91901 4.958605,-12.06514 0.900383,-4.65884 2.807751,-8.88711 3.900993,-13.48279 1.758007,-3.93015 5.004461,-6.68444 6.876443,-10.54751 2.637712,-3.38075 5.996844,-6.13852 8.710321,-9.47283 2.426994,-3.6276 5.24374,-7.71291 8.842197,-10.21299 3.485324,-3.56599 -0.635391,0.38491 3.17393,-2.48932 1.129429,-0.85218 1.520408,-2.51846 2.732793,-3.24781 31.627984,-19.02673 25.153234,-16.046156 40.165874,-22.775448 1.3856,-0.479596 5.34602,-2.38289 4.08099,-1.641538 -11.44293,6.705949 -22.9669,13.272686 -34.43701,19.932046 -0.595509,0.34574 1.217301,-0.64485 1.812643,-0.99088 12.677637,-7.36859 25.379607,-14.695969 38.005657,-22.152603 11.43013,-6.750346 -22.9452,13.355803 -34.4178,20.033703 15.37269,-9.792097 30.81576,-19.575538 47.44846,-26.987481 4.13995,-1.45938 8.25474,-3.076819 12.22674,-4.925604 3.8296,-2.041549 7.90295,-3.631525 11.97462,-5.117865 4.23117,-1.589677 8.66297,-2.746182 12.97264,-4.087872 4.51273,-1.235967 8.97909,-2.565995 13.52525,-3.667438 4.38286,-1.560906 8.87891,-2.61721 13.40533,-3.692699 4.93636,-0.629561 9.8176,-1.488938 14.71265,-2.36862 5.6452,-0.195795 11.29605,-0.04492 16.94379,-0.09233 5.714,-4.45e-4 11.428,-0.0011 17.14199,-0.0053 5.71473,-0.0047 11.42946,-0.01432 17.14419,-0.01406 5.73506,0.0093 11.47318,0.01018 17.20317,0.282736 5.8039,0.343658 11.5803,0.957947 17.29726,2.044446 5.6012,0.78561 11.23965,0.484769 16.88118,0.694397 5.33519,0.224952 10.67794,0.584272 15.90812,1.733501 5.16508,1.02799 10.31614,1.164436 15.58075,0.961566 5.70696,-0.0048 11.41461,-0.0224 17.12083,0.08591 5.43948,0.146457 10.8975,0.356908 16.26226,1.344033 5.04084,0.959841 10.01108,1.897219 15.18454,1.455089 5.71296,0.0065 11.426,0.02198 17.1389,-0.01058 5.50834,-0.05363 11.0292,-0.107394 16.51103,-0.708351 4.9832,-0.646601 9.8706,-2.014239 14.9053,-2.119699 5.70556,0.01809 11.41171,0.06005 17.11695,-0.02305 5.85935,-0.145919 11.75247,-0.393559 17.47107,-1.800971 6.69906,-1.804326 13.03452,-4.593628 19.64488,-6.68113 0,0 -33.48915,26.017592 -33.48915,26.017592 z"
       inkscape:connector-curvature="0" />
    <path
       style="fill:#ffff00"
       id="path3338"
       d="m 373.0547,334.38663 c -4.78813,3.76549 -9.54535,7.58895 -14.01854,11.72718 -3.63995,3.59949 -6.76851,7.65065 -10.06417,11.55641 -4.06782,4.6577 -8.3885,9.08812 -12.72878,13.49051 -4.56075,4.77802 -9.55218,9.1002 -14.21195,13.77601 -4.31334,4.21964 -8.29252,8.70391 -12.04441,13.42241 -4.166,5.11481 -8.79647,9.83332 -13.28418,14.66617 -4.66195,4.86059 -9.54463,9.49144 -14.22262,14.33991 -5.56665,5.24182 -9.60174,11.75925 -14.10643,17.87156 -4.12297,5.69087 -8.78318,10.95733 -13.76984,15.89924 -3.5841,2.96271 -6.90115,6.21972 -10.36396,9.31281 -1.66656,0.89073 -2.62659,2.73812 -4.42684,3.35517 -1.77938,-2.88446 0.40264,-2.44526 2.55441,-2.49204 2.41906,-0.0404 4.8384,-0.0229 7.25753,-0.0614 2.34922,0.0192 4.69856,-0.019 7.04769,-0.003 2.26899,-0.002 4.53793,0.005 6.80691,-0.004 2.31859,0.0162 4.63696,-0.009 6.95558,0.0109 2.30525,-0.0253 4.61044,0.004 6.91571,-0.004 2.35458,-0.01 4.70949,-0.008 7.0641,0.0102 3.13548,-0.30253 4.85614,0.0758 7.65303,1.45762 2.54514,1.19656 5.14969,2.51945 7.15614,4.5585 1.49563,1.76936 3.04776,3.27811 4.4546,5.14633 1.39453,1.8001 1.59578,4.11605 1.79246,6.30337 0.42045,2.83491 -0.40547,5.3506 -1.32987,7.97195 -1.81735,1.93374 -3.67682,3.80129 -5.61324,5.63228 -1.11725,2.66318 -2.54695,4.89141 -4.4039,7.07285 -1.98721,2.71743 -4.32751,5.04636 -6.91056,7.18725 -2.72111,1.93488 -5.18136,4.33916 -7.43073,6.82367 -4.06712,3.57617 -8.11309,7.17245 -12.07712,10.8638 -14.54976,12.44461 -34.25332,21.58015 -49.72663,30.54853 78.17841,-45.08212 8.73124,-4.97232 -5.06265,2.70392 -11.37425,6.32972 22.55552,-13.00061 33.87947,-19.4199 0.80558,-0.45667 -1.55966,0.9996 -2.31931,1.52915 -1.47691,1.02955 -2.90179,2.13179 -4.35556,3.19374 -3.7883,2.83346 -7.3054,5.93135 -10.79476,9.10772 -3.55924,3.01568 -6.78417,6.41608 -10.50132,9.23646 -4.22051,3.51933 -8.26297,7.26041 -12.42736,10.86404 -3.40445,2.59056 -6.63459,5.33034 -9.60396,8.41286 -2.41129,1.57453 -4.05581,3.50496 -5.1462,6.13006 -1.34785,2.30108 -2.36394,4.65341 -3.81774,6.87984 -1.26299,1.66436 -1.87672,3.68602 -2.14239,5.73317 -0.12481,2.05154 -0.28606,4.0563 -0.6519,6.05416 -0.008,0.13308 0.055,0.50712 -0.0233,0.39923 -1.43126,-1.97232 2.47773,-1.44286 3.30608,-1.44418 2.57894,-0.008 5.15678,-0.0799 7.73577,-0.0759 2.33943,-0.0457 4.67902,-0.0153 7.01863,-0.0242 2.44481,0.0156 4.88935,-0.014 7.33418,0.006 2.31621,-0.0264 4.63237,0.002 6.9486,-0.005 2.2491,-0.0186 4.49807,0.0124 6.74722,-0.0106 3.46106,-0.29702 4.52231,0.55523 6.12114,3.65918 0.96827,2.2284 0.97937,4.63864 1.03086,7.0209 -0.006,2.54944 0.18541,5.13082 -0.43529,7.61969 -0.77154,2.78174 -2.87276,4.35013 -4.94534,6.08766 -10.62814,10.94874 -29.13663,17.32483 -39.88353,23.2339 -0.39183,0.21544 -0.93669,-0.004 -1.32322,0.22042 -0.35157,0.20448 -0.48863,0.65032 -0.73294,0.97548 -0.39277,0.19662 -0.78554,0.39324 -1.17831,0.58986 -13.10909,6.71922 -2.60992,1.36065 34.04346,-19.68445 0.41901,-0.24057 -0.81306,0.52239 -1.2259,0.7734 -1.34999,0.8208 -2.22342,1.83847 -3.3507,2.94056 -12.8674,11.59614 -29.28777,17.61939 -43.99068,27.01123 -11.19147,7.14881 23.01354,-13.25875 34.52032,-19.88812 -13.628,8.85302 -28.39714,16.44704 -42.18952,24.57405 -11.22711,6.61545 22.5672,-13.03739 33.87403,-19.51566 1.5287,-0.87586 -2.95306,1.92714 -4.36104,2.98619 -3.97862,2.75371 -6.99691,6.45392 -9.59264,10.47745 -2.24196,3.67149 -4.38976,7.40472 -6.79433,10.97492 -2.14713,1.94418 -3.77365,4.07105 -4.86372,6.73697 -1.31224,2.11391 -2.42679,4.24063 -2.97209,6.67882 -0.84576,2.7156 -2.9504,4.49957 -4.48315,6.76643 -1.44703,1.67915 -1.47396,3.94564 -1.50769,6.04897 -0.65814,2.28432 -2.68893,3.79975 -3.97776,5.82065 -2.41405,1.95008 -4.21425,4.56734 -6.57935,6.55278 -2.29588,2.35954 -4.69837,4.5928 -6.91589,7.02595 -2.29031,1.73434 -3.95479,4.10652 -5.76006,6.3076 -2.0481,-0.61325 -1.2732,-1.83881 0.7369,-1.87174 0.16702,-0.31287 0.24939,-0.68872 0.50105,-0.93861 0.5569,-0.553 2.75875,-1.49757 2.0774,-1.10808 -64.945638,37.12598 -44.725285,26.37081 -32.96001,18.69051 12.97715,-10.26882 21.55442,-13.48479 41.09871,-24.68537 11.37411,-6.51835 -43.97763,28.18509 -34.14647,19.51286 2.53022,-1.77304 4.65574,-4.04474 6.99728,-6.05205 1.88639,-2.74103 4.80376,-4.1832 7.31506,-6.20887 11.90588,-11.57673 21.57221,-13.42568 40.88827,-24.83334 11.30922,-6.67899 -45.2509,26.67684 -34.14073,19.67173 20.90885,26.92854 24.96491,-19.86808 40.03519,-22.60836 0.43243,-0.0786 0.91805,0.10939 1.31635,-0.0765 0.3654,-0.17049 0.53151,-0.6065 0.79726,-0.90975 0.42318,-0.18804 0.84636,-0.37608 1.26954,-0.56413 0.85252,-0.98023 2.6026,-0.68397 3.5672,-1.19857 0.36949,-0.19711 0.47078,-0.71263 0.80584,-0.96383 0.74182,-0.55615 1.67566,-0.79417 2.50944,-1.19965 0.35021,-0.17011 1.3878,-0.70497 1.05062,-0.51031 -11.75958,6.78875 -23.54153,13.53867 -35.32032,20.29405 -0.37671,0.21606 0.7384,-0.45754 1.11379,-0.67589 12.53933,-7.29365 25.28502,-14.24231 37.63018,-21.85998 11.14317,-6.87596 -44.77841,27.08973 -34.06135,19.56688 10.66023,-10.30055 36.02383,-20.98174 39.94631,-23.13945 1.32408,-0.72837 2.0766,-0.10689 3.33231,-1.18846 -0.76153,-0.16953 3.08967,-1.52536 2.34455,-1.09177 -11.71593,6.81759 -23.52399,13.47582 -35.31955,20.15468 -0.90353,0.5116 1.70823,-1.18491 2.60695,-1.70492 12.49482,-7.22966 25.00612,-14.43078 37.50919,-21.64617 16.37593,-3.61796 -44.70606,27.68732 -34.08989,19.911 11.70533,-8.57412 25.01931,-14.70694 37.68806,-21.78034 11.79596,-6.58609 -23.35084,13.59534 -35.06936,20.31823 -0.84014,0.48199 1.49027,-1.2441 2.15872,-1.94504 22.66961,-13.89583 76.7911,-44.11502 3.46183,-2.22382 -0.35419,0.20234 0.73285,-0.36508 1.06755,-0.59825 2.25953,-1.57413 -0.15815,-0.3157 2.28668,-1.46206 13.0017,-10.17581 30.9192,-18.815 43.24958,-26.03628 13.82653,-4.98461 22.88306,-12.61833 -33.03779,19.31429 -0.36664,0.20936 0.74828,-0.39173 1.11461,-0.60164 38.27313,-21.93048 23.9979,-16.9602 38.99755,-22.0876 -11.82613,6.76945 -23.62144,13.59303 -35.47839,20.30836 -0.78336,0.44366 1.40795,-1.13434 2.18928,-1.58156 12.57752,-7.19921 25.00937,-14.66423 37.78441,-21.50682 11.58469,-6.20501 -45.59747,26.15647 -34.23327,19.55627 11.97406,-10.34283 1.40709,-1.33358 38.61268,-22.52593 11.75708,-6.69685 -23.44653,13.51181 -35.17783,20.25373 -0.41029,0.23579 0.8046,-0.49864 1.21447,-0.73517 38.03348,-21.94868 24.10195,-16.85382 39.14129,-22.25541 -0.32272,0.85422 2.91975,-1.6611 2.18997,-1.24556 -118.44004,67.43966 86.53494,-49.03477 -31.72648,18.60747 12.72438,-9.51906 2.7323,-2.11615 39.01323,-22.54933 2.08033,-1.17163 0.90124,0.19371 3.16243,-0.70966 0.99695,-0.39829 1.81223,-1.17028 2.7988,-1.59364 13.80236,-5.99938 3.52712,-1.59578 -33.81496,19.53821 -0.45439,0.25717 0.83927,-0.62139 1.26363,-0.92557 1.23808,-0.88746 2.52292,-1.68862 3.75002,-2.59246 14.00515,-9.91504 27.9586,-23.27883 45.1626,-25.77909 1.84169,-0.25388 3.2749,-0.19475 4.88073,-1.17445 0.40055,-0.24437 1.59441,-0.98926 1.18649,-0.75739 -33.63925,19.12138 -46.70916,27.13778 -33.86542,19.27756 2.53329,-1.77231 5.00517,-3.59063 7.19887,-5.7795 2.50081,-2.21579 5.40271,-3.89095 8.0144,-5.93524 14.01363,-10.59101 28.66118,-22.3972 46.09708,-25.87678 2.60093,-0.48015 5.27353,-0.31765 7.90819,-0.3143 0.28694,0.002 0.6948,0.23946 0.86082,0.005 0.22949,-0.3235 0.32541,-1.38342 -0.0207,-1.18972 -77.70432,43.48607 -38.09933,32.46879 -34.51286,18.77999 0.21414,-2.13225 0.10224,-4.28164 0.0435,-6.41966 -0.038,-2.21925 -0.0409,-4.43884 -0.0877,-6.65792 -0.0157,-2.01842 0.0819,-4.04023 -0.0324,-6.05688 -0.82381,-2.3289 -2.56505,-3.83873 -4.92664,-4.41861 -2.48788,-0.71242 -4.89144,-0.0476 -7.18978,-1.25181 -1.98681,-1.39599 -4.32349,-1.67287 -6.66277,-1.9605 -2.21172,-0.066 -4.42393,-0.0257 -6.63605,-0.0203 -2.8603,-0.16529 -4.51765,0.91293 -6.62796,-1.18288 -1.78122,-1.87115 -2.0815,-4.19216 -2.21194,-6.65276 -0.0871,-2.2412 -5.4e-4,-4.48428 -0.0194,-6.72671 0.0303,-2.15577 0.007,-4.31121 0.0421,-6.46705 -0.0331,-2.27295 0.0109,-4.54569 2.6e-4,-6.81867 0.0284,-1.6369 -0.13539,-1.7991 0.61841,-3.3677 0.63647,-1.32444 2.35212,-3.43471 3.59239,-4.17448 12.6305,-7.53352 25.43442,-14.7724 38.15163,-22.15859 4.36042,-2.26903 8.77739,-4.44187 13.50757,-5.81865 4.66618,-0.93231 8.31794,-3.98434 12.68995,-5.60901 3.93684,-1.90072 7.92632,-3.37391 12.27094,-4.0911 1.85029,-0.52047 4.00165,0.006 5.84109,-0.51757 1.41688,-0.40337 2.65897,-1.42938 4.11585,-1.87197 2.92872,-0.85151 6.09595,-0.96076 9.14241,-1.00013 0.43765,-0.009 0.89539,0.1041 1.31294,-0.0273 0.42144,-0.13262 0.70401,-0.54588 1.10409,-0.7333 2.1131,-0.98984 4.50336,-1.32639 6.79019,-1.58824 3.53723,-1.94307 7.71587,-2.05925 11.32168,-3.67086 1.31998,-1.08277 3.33779,-1.10462 4.75411,-1.8758 0.44323,-0.24134 0.72894,-0.69819 1.09341,-1.04728 0.47931,-0.24531 0.95862,-0.49062 1.43793,-0.73592 -11.66241,6.73633 -23.32482,13.47267 -34.98723,20.209 12.80002,-10.98514 17.45575,-10.91059 41.04179,-24.421 11.41003,-6.53582 -45.67531,26.08163 -34.24662,19.57851 2.29004,-1.54785 4.42503,-3.34006 6.84709,-4.74367 13.60058,-11.13115 24.18336,-15.41792 43.18428,-26.38917 1.91499,-0.16834 1.11119,0.20518 2.45014,-1.03307 -11.80732,6.80202 -23.61649,13.60085 -35.42196,20.40607 -0.7478,0.43106 1.64528,-0.65128 2.26868,-1.24826 1.18342,-1.61139 1.09263,-3.80532 1.16807,-5.72664 -0.0166,-2.30082 -0.005,-4.60182 -0.0301,-6.90262 -0.0426,-2.24781 0.003,-4.49573 -0.0344,-6.74376 0.0395,-2.29199 -0.0129,-4.58436 0.0114,-6.87621 -0.3561,-3.41956 0.79548,-2.78658 -0.29054,-1.58083 -0.24847,0.0151 -0.52141,0.15376 -0.74542,0.0452 -0.46391,-0.22481 -0.76656,-0.69441 -1.19274,-0.98445 -1.28035,-0.87137 -2.724,-1.1485 -4.20043,-1.47172 -1.92451,-1.83746 -4.26764,-2.52058 -6.78418,-3.06587 -3.00145,0.0382 -4.39791,0.10853 -6.85405,-1.80009 -1.88246,-1.05546 -3.74203,-0.77183 -5.34105,-2.16823 -1.71477,-1.19805 -3.73027,-1.52534 -5.749,-1.87777 -2.07225,-1.88418 -2.79974,-4.35882 -3.07851,-7.04712 -0.14627,-2.2721 -0.0922,-4.55176 -0.0898,-6.8271 0.026,-2.21258 0.0477,-4.4263 0.0152,-6.639 0.0481,-2.1981 -10e-4,-4.39673 0.024,-6.59479 -5.1e-4,-2.25926 0.008,-4.5184 -0.005,-6.77763 -0.20097,-3.4525 0.40587,-5.17663 2.71493,-7.59102 1.76854,-2.24413 3.52236,-4.47445 5.71644,-6.39635 1.78501,-2.79255 4.6673,-4.56054 6.69982,-7.11647 2.09045,-2.27932 4.47991,-4.26015 6.75004,-6.35488 1.85505,-1.67955 3.6123,-3.46056 5.41091,-5.19899 2.00908,-2.237 4.29816,-4.10273 6.54887,-6.05486 2.19066,-2.46689 4.74836,-4.49822 7.03355,-6.8611 1.93859,-2.39184 4.29006,-4.28864 6.77225,-6.06201 2.28943,-2.13372 4.46855,-4.36515 6.89546,-6.35172 2.51989,-1.95845 4.57118,-4.36431 6.93466,-6.51828 2.19462,-2.41717 4.80065,-4.54036 6.91619,-7.04621 2.591,-3.518 5.05801,-7.12202 7.49596,-10.74992 2.20126,-4.04724 4.63872,-7.95048 6.98645,-11.90846 2.05314,-3.99984 4.63521,-7.69494 6.82736,-11.6162 1.75149,-3.40101 4.23239,-6.32344 6.5941,-9.31094 2.26467,-2.47021 4.66064,-4.84095 6.93885,-7.33133 2.58091,-2.52488 4.51623,-5.5773 6.97183,-8.21156 1.75948,-1.95621 3.12959,-4.16826 3.75391,-6.73382 3.01904,-19.44641 1.78802,-6.80008 38.56218,-28.06413 0.47176,0.0208 0.94352,0.0417 1.41529,0.0625 0,0 -33.83724,25.89338 -33.83724,25.89338 l 0,0 c -0.30356,0.21765 -0.60712,0.4353 -0.91068,0.65296 11.8633,-6.91364 23.8529,-13.61498 35.58991,-20.74091 0.32925,-0.1999 -0.76209,-0.23376 -1.14249,-0.17326 -1.21257,0.19285 -1.33323,1.30246 -1.35624,2.22458 -0.0119,0.4782 -0.0203,0.95648 -0.0305,1.43472 -0.34248,3.11038 -1.05027,6.23376 -2.99013,8.77836 -2.09582,2.98373 -4.81234,5.44339 -6.84961,8.47289 -2.25572,2.40641 -4.23267,5.35138 -7.00684,7.09046 -2.43179,2.84085 -4.79697,5.75342 -6.99387,8.71178 -2.26023,3.82693 -4.29871,7.79361 -6.92266,11.39614 -1.84269,4.34059 -4.90639,7.92351 -6.89754,12.21057 -2.0823,3.9186 -4.83846,7.33481 -7.18503,11.05641 -0.68673,1.06428 -1.24656,2.2215 -2.05692,3.19496 -1.40301,1.6854 -3.7517,2.41504 -4.49964,4.6448 -2.43502,2.15604 -4.89875,4.15459 -6.8863,6.65623 -2.39547,2.05626 -4.56393,4.04147 -7.04873,5.93173 -1.83497,2.63017 -4.54539,3.85298 -6.84142,5.98088 -2.24253,2.55759 -4.54561,4.63104 -6.91598,7.01835 -2.03399,2.28704 -4.44638,3.72245 -6.49795,6.03028 -1.77124,1.81273 -3.60009,3.5707 -5.41415,5.33978 -2.23283,2.11777 -4.48098,4.22235 -6.8677,6.16837 -2.40062,2.01541 -3.99609,5.02332 -6.86512,6.67117 -1.44487,2.67888 -4.44655,3.89084 -5.51313,6.69877 -0.5657,0.64796 -0.93226,1.5335 -1.67997,1.9587 -0.32725,0.1861 -0.7848,-0.0524 -1.12393,0.11105 -0.9532,0.45946 -1.37034,1.71603 -1.20981,2.64796 -0.0137,2.26099 -0.005,4.52188 -0.005,6.78289 0.0254,2.19333 -0.0236,4.38721 0.02,6.58063 -0.0396,2.22536 -0.0314,4.45148 -0.0353,6.67703 -0.0304,2.18355 -0.0523,4.36712 -0.0418,6.55097 0.004,0.39164 -0.0726,3.13262 0.34539,2.40509 2.2512,0.71752 4.40054,1.6315 6.40331,2.90159 1.76535,-0.4219 3.81043,1.58525 5.36355,2.20473 1.92445,0.51716 4.31922,-0.18789 6.227,0.90445 2.36182,0.84481 4.48577,2.15712 6.76513,3.09887 2.15524,0.7775 4.07014,2.03924 6.25612,2.44568 2.28348,1.63771 3.35717,3.42009 2.98032,6.24449 0.0243,2.28694 -0.0292,4.57441 0.0119,6.86149 -0.0346,2.24789 0.0118,4.49525 -0.007,6.7431 -10e-4,2.32003 0.0588,4.63945 0.0465,6.95958 0.0518,2.50223 -0.004,4.98988 -0.2587,7.48186 -4.23668,16.1202 -27.05218,18.8752 -41.37841,26.1208 58.56452,-33.9796 41.6693,-26.98573 29.59713,-15.95725 -1.41329,1.24311 -3.27778,1.80753 -4.66862,3.01305 -0.3856,0.33422 -0.53936,0.89547 -0.94632,1.20332 -0.34812,0.26334 -0.82121,0.29623 -1.23182,0.44435 -2.81367,2.65548 -94.44368,55.07616 -3.44956,2.1859 0.58272,-0.33871 -3.47217,1.77874 -3.46468,2.57696 -15.01803,8.89799 -28.74223,19.92145 -45.27033,25.2975 -3.94871,0.92804 -7.71533,2.45186 -11.69944,3.22133 -3.18936,0.83507 -6.24446,2.18614 -9.60185,1.98865 -2.88859,0.31708 -5.73669,0.70948 -8.41845,1.91198 -3.27529,1.28023 -6.76941,1.02664 -10.14681,1.96555 -4.05599,1.23119 -7.86178,3.00352 -11.73693,4.70471 -4.12687,2.1666 -8.34025,4.036 -12.84747,5.29884 -4.50952,1.87846 -8.90896,4.00427 -13.17709,6.38403 59.93951,-35.11995 41.03737,-25.17124 28.64492,-16.22368 -0.0104,2.27454 0.0343,4.54885 -10e-4,6.82336 0.0316,2.15866 6.8e-4,4.31629 0.004,6.47498 -0.0503,2.19881 -0.0247,4.3977 -0.0623,6.59659 9e-4,0.67436 -0.10617,2.58585 0.0668,2.79244 -0.0374,-1.17483 4.26844,-0.34571 5.33679,-0.52662 2.37345,0.0302 4.76926,0.10092 7.09401,0.62221 2.38593,0.58166 4.61342,1.51759 6.89522,2.38544 2.59637,-0.1507 5.11809,0.61831 7.44868,1.71718 3.02245,1.78807 5.52352,4.20249 6.87207,7.51557 0.89346,2.31079 0.6342,4.65312 0.65629,7.11735 -0.0323,2.20199 -0.0132,4.40517 0.0245,6.60688 0.0308,2.27643 0.11699,4.55154 0.16417,6.82741 0.44359,16.57062 -23.44503,30.56385 -38.94836,26.53083 -2.43359,0.0605 -4.84553,0.29076 -7.15411,1.12351 -12.55979,4.57149 -40.10379,23.41627 31.75958,-18.73524 1.08228,-0.63482 -2.39175,0.92293 -3.32872,1.75744 -0.47594,0.42388 -0.83604,0.96219 -1.25406,1.44329 -2.86181,1.63184 -5.29879,3.80593 -8.11348,5.59762 -2.66279,1.6577 -4.367,4.40557 -7.14323,5.87384 -12.93913,11.90441 -28.47169,20.81599 -45.34093,24.37619 -15.61385,7.78568 52.36319,-31.05657 27.94879,-15.99825 -13.11044,10.88231 -28.91923,18.5961 -43.99471,26.18416 -3.71225,1.72434 0.63135,-0.17084 -3.19383,1.12081 -1.27694,0.43119 -4.64772,2.42524 -2.70957,1.2955 2.95953,-1.72509 47.788,-27.72584 33.84116,-19.63657 -12.51295,7.26031 -25.01709,14.5358 -37.53884,21.78092 -0.37026,0.21424 -1.50627,0.81115 -1.13621,0.59658 11.72354,-6.79761 46.81172,-27.32917 35.19761,-20.34624 -12.39465,7.45222 -24.98192,14.58011 -37.53954,21.75431 -0.74997,0.42847 -1.70625,0.40728 -2.40353,0.96821 -0.40006,0.22008 -1.59486,0.88987 -1.2002,0.66023 11.67612,-6.79401 23.33779,-13.61311 35.04492,-20.35355 0.42051,-0.24211 -0.75923,0.61018 -1.17836,0.85468 -12.54096,7.31576 -25.2025,14.42497 -37.69549,21.82235 -11.34373,6.71687 49.59739,-26.26991 34.13877,-19.9678 -11.2368,11.10906 -2.15176,2.28974 -38.67029,22.69571 -11.85193,6.62267 23.50981,-13.58673 35.26674,-20.37658 0.76283,-0.44055 -1.52289,0.88585 -2.28464,1.32826 -12.50816,7.26445 -25.01506,14.53106 -37.52259,21.79659 -12.87675,6.94651 -7.10378,3.8468 34.08706,-19.79096 0.38071,-0.21847 -0.67,0.57518 -1.05042,0.79416 -13.15619,7.57317 -26.69022,14.8924 -39.78338,22.73151 60.80478,-35.64655 42.43107,-25.16777 29.30771,-16.64392 -0.85858,1.08794 -1.97001,1.86649 -3.15944,2.56069 -12.52317,7.30916 -24.77087,15.14236 -37.71855,21.67009 -75.12365,37.8745 50.79129,-28.63726 34.09943,-19.81761 -1.70106,0.89865 -0.9505,0.2967 -2.2229,1.84116 -12.41155,7.5736 -26.25906,13.06116 -37.49328,22.29146 -10.4534,8.58875 47.38804,-26.05037 35.12164,-20.34287 -20.38855,9.4867 -26.32482,13.64888 -38.73867,22.26029 75.56456,-43.64987 14.06852,-7.77475 -7.41314,3.94619 -1.25838,0.2068 -1.27871,0.1269 -2.33428,0.55863 -0.36641,0.14986 -1.42194,0.69382 -1.07929,0.49556 59.90133,-34.65999 46.16505,-25.0857 32.95471,-19.23274 -11.04341,12.13536 8.35209,-8.96667 -38.49839,23.20698 -11.16953,7.67046 23.37133,-13.71768 35.11252,-20.48073 0.3925,-0.22609 -0.66031,0.63227 -1.05122,0.86108 -34.25995,20.05258 -24.85659,15.16055 -38.62262,22.29358 -2.2928,1.24042 -4.61595,2.05997 -6.93571,3.2778 -3.0482,1.59843 0.58401,-0.12742 -2.61307,0.84458 -1.07137,0.32572 -2.02335,1.20209 -3.04749,1.63089 11.71251,-6.82203 23.42501,-13.64407 35.13752,-20.4661 -4.52885,3.48496 -93.035674,54.5749 -3.24847,2.19514 1.08821,-0.63484 -4.27595,1.85506 -3.78282,2.44066 -2.29768,2.45578 -4.67555,4.02521 -7.48392,5.80233 -1.83107,2.73526 -4.53944,4.40277 -6.60305,6.90051 -12.8316,7.65924 -26.97165,13.45264 -38.51703,22.94043 -10.47347,8.60691 23.4365,-13.63158 35.15475,-20.44737 -0.45652,0.19276 -0.95482,0.30709 -1.36957,0.57829 -0.19953,0.13047 -2.03846,1.9757 -2.18144,2.11781 -12.4692,9.91462 -19.98773,12.04561 -40.06877,23.40071 -0.30028,0.1698 -2.11352,0.73239 -2.42229,0.72684 -0.4989,-0.009 -0.96761,-0.24423 -1.45141,-0.36634 -3.140398,-0.58784 -5.5855,-2.79656 -5.243064,-6.23624 1.965962,-2.2431 3.846974,-4.54112 5.592044,-6.96295 2.77281,-1.80149 4.44281,-4.63892 7.07439,-6.59511 2.80206,-3.72916 -0.8021,0.70767 2.26285,-2.06544 1.54439,-1.39734 2.56546,-3.40842 4.15643,-4.72851 1.62239,-0.76502 1.32729,-1.73187 2.52344,-2.84717 0.24162,-0.22529 0.70688,-0.0824 0.93879,-0.31764 1.40336,-1.42363 -0.62148,-0.80833 1.07,-1.14852 0.24441,-0.0278 0.59422,0.11965 0.73323,-0.0833 0.73338,-1.0707 -0.33428,-5.0654 0.64286,-6.35287 0.59841,-1.12186 1.16467,-2.59753 1.96499,-3.57436 0.56249,-0.68654 1.55742,-0.93096 2.10713,-1.62779 0.28882,-0.36613 0.38047,-0.85153 0.5707,-1.27729 1.79531,-1.57353 0.9578,-5.12949 2.92196,-6.84862 1.82041,-2.40252 1.90292,-5.85642 4.50877,-7.81065 3.53305,-2.41822 4.65758,-6.82755 7.36418,-10.01213 2.21069,-4.62682 5.15761,-8.66045 8.9133,-12.17821 1.47048,-1.04587 2.66245,-2.47689 4.21408,-3.39809 22.1829,-13.16995 75.93206,-43.5344 4.50214,-2.47385 -1.28003,0.7358 4.65494,-3.13337 3.78482,-2.30089 12.66562,-7.40234 25.30355,-14.85226 37.99688,-22.207 11.48735,-6.65598 -22.90679,13.42861 -34.37897,20.11071 -0.5728,0.33364 1.16382,-0.6483 1.67965,-1.06463 0.52216,-0.42144 0.94287,-0.95502 1.41431,-1.43253 0.53876,-0.27385 1.11635,-0.48195 1.61628,-0.82155 0.459,-0.3118 0.82366,-0.74378 1.23548,-1.11566 1.68131,-1.35144 1.87142,-1.81271 3.18021,-3.37783 9.71031,-11.61209 26.61125,-15.78513 39.92578,-23.41729 2.33743,-1.37707 -0.1055,-0.12986 2.47306,-0.87578 0.38121,-0.11027 1.42555,-0.69514 1.08212,-0.49631 -59.77783,34.60967 -46.29775,24.85852 -32.95758,19.30169 0.65405,-0.72678 1.12861,-1.65597 1.94239,-2.19797 1.11409,-0.74201 2.74207,-1.04686 3.58252,-2.44275 1.79904,-2.12281 1.17165,-3.2379 1.26343,-5.92963 0.0144,-1.78876 0.089,-3.60497 -0.2104,-5.37383 -0.50979,0.58327 -2.35166,0.36415 -3.48928,0.38793 -2.2394,-0.0237 -4.47862,0.008 -6.71796,-0.0107 -2.3114,-0.008 -4.62274,0.0212 -6.93411,-0.006 -2.44851,0.0191 -4.89676,-0.0101 -7.34523,0.009 -2.32856,-0.003 -4.65683,0.0376 -6.98542,0.0264 -2.62754,0.0368 -5.25686,0.0356 -7.88129,-0.11755 -2.85569,-0.28323 -6.24621,-1.01508 -6.7507,-4.45002 -0.20959,-2.32834 0.85429,-4.00117 0.4912,-6.43135 0.19772,-2.57604 0.47176,-5.07785 1.38324,-7.52473 0.46223,-0.77737 0.76457,-1.67 1.36977,-2.34208 0.24235,-0.26915 0.70561,-0.28729 0.91868,-0.58016 0.78819,-1.08334 0.42145,-2.87118 1.63051,-3.74934 1.79796,-2.42257 1.83861,-5.88007 4.56877,-7.74423 3.76403,-2.14114 5.85118,-6.45014 9.87934,-8.31426 4.18886,-3.60045 8.61956,-6.93956 12.22289,-11.14546 3.801,-2.68146 7.29151,-5.57006 10.62883,-8.83951 3.58324,-3.15226 6.73434,-6.68435 10.81443,-9.26592 12.0627,-11.46675 35.48761,-22.02612 44.98051,-27.59131 1.65389,-0.96959 -100.14022,57.99328 4.99531,-2.8506 -63.03985,36.6528 -35.65602,21.43392 -22.22726,12.10337 3.84285,-3.71882 7.73673,-7.39769 11.83843,-10.83107 2.72588,-2.0642 4.83457,-4.86472 7.17683,-7.29163 2.77223,-1.69303 5.25117,-3.57932 7.31876,-6.08944 1.65995,-2.20025 4.01559,-3.55576 4.67805,-6.37986 0.85995,-2.91604 3.1438,-4.64505 5.14664,-6.64037 2.05252,-0.38549 2.90826,-2.90183 2.75474,-4.81378 -0.0134,-1.35251 0.19642,-2.95766 -0.58488,-4.11832 -1.16346,-1.60551 -2.6553,-2.90963 -3.91381,-4.43583 -1.99135,-1.34746 -4.07917,-2.47874 -6.34931,-3.28467 -2.15685,-0.55681 -4.50811,0.0747 -6.73713,-0.16944 -2.36399,0.0175 -4.72828,0.0201 -7.09224,0.0102 -2.30179,-0.007 -4.6035,0.0216 -6.90527,-0.004 -2.32857,0.0197 -4.65687,-0.005 -6.98542,0.0106 -2.26397,-0.009 -4.52789,-0.003 -6.79187,-0.003 -2.34848,0.0187 -4.69729,-0.0142 -7.04575,0.0257 -2.44164,-0.0143 -4.8839,0.0486 -7.32478,-0.0234 -3.22084,-0.18635 -5.24161,-0.91576 -6.64362,-4.16604 -0.034,-2.3667 0.34055,-2.10593 1.68699,-3.6707 2.32593,-2.7031 -0.95843,-0.18632 1.94951,-2.17888 3.85826,-2.80163 6.9216,-6.39469 10.76782,-9.22477 5.38437,-4.39844 9.84763,-9.81238 14.20148,-15.20947 4.67484,-6.05027 8.46111,-12.77899 13.78908,-18.27904 4.65375,-4.87229 9.30417,-9.71558 14.24166,-14.28064 4.47361,-4.78113 8.90224,-9.60185 13.37873,-14.35324 3.80692,-4.75985 7.34988,-9.69209 11.88519,-13.81903 4.58848,-4.77661 9.46501,-9.1428 14.17599,-13.78463 4.3036,-4.34143 8.62794,-8.66644 12.7418,-13.19007 3.40755,-3.84536 6.41325,-8.05197 10.01265,-11.68976 3.84441,-4.80176 9.10608,-8.21804 13.68885,-12.27587 0,0 39.35188,-15.79223 39.35188,-15.79223 z"
       inkscape:connector-curvature="0" />
    <path
       style="fill:#00ffff"
       id="path3340"
       d="m 539.70503,387.62034 c -0.2489,6.68726 -0.11891,13.38139 -0.0962,20.07164 0.10838,4.91093 0.0234,9.82311 0.0783,14.73437 0.0123,4.80067 -0.0216,9.60133 -0.0366,14.40198 -0.0455,5.16415 0.025,10.32781 0.0247,15.49186 0.002,4.53816 -0.0169,9.07704 0.0344,13.61498 0.07,2.82841 0.0285,5.65768 0.0837,8.48627 0,0 -37.98292,19.35327 -37.98292,19.35327 l 0,0 c 0.0546,-2.85703 0.0143,-5.71471 0.0837,-8.57157 0.0509,-4.54963 0.0331,-9.10018 0.0344,-13.65004 -2.7e-4,-5.17245 0.0702,-10.34453 0.0247,-15.51709 -0.0151,-4.7882 -0.0489,-9.57642 -0.0366,-14.36465 0.0546,-4.93786 -0.0296,-9.87663 0.0783,-14.81417 0.0225,-6.65751 0.15426,-13.31915 -0.0962,-19.97356 0,0 37.80634,-19.26329 37.80634,-19.26329 z"
       inkscape:connector-curvature="0" />
    <path
       style="fill:#00ffff"
       id="path3342"
       d="m 445.41932,547.62034 c -0.32747,9.06896 -0.29697,18.14878 -0.24469,27.22252 0.0607,7.1913 0.11978,14.38257 0.14981,21.57407 0.0694,4.95542 0.028,9.91196 0.0856,14.86737 0.0275,3.03617 0.0367,6.07321 0.10345,9.10885 -0.0328,2.22427 0.0164,4.44887 -0.009,6.67296 3.7e-4,2.24803 -0.009,4.49594 0.005,6.74394 -0.0216,1.66414 -0.0184,0.84424 -0.0107,2.4597 0,0 -37.96452,19.34389 -37.96452,19.34389 l 0,0 c 0.008,-1.61572 0.011,-0.79945 -0.0107,-2.44881 0.0135,-2.24954 0.004,-4.49898 0.005,-6.74854 -0.0255,-2.22106 0.0242,-4.44266 -0.009,-6.6639 0.0661,-3.07081 0.0762,-6.14295 0.10345,-9.21427 0.0572,-4.98449 0.0165,-9.97008 0.0856,-14.95458 0.0301,-7.24238 0.0893,-14.48455 0.14982,-21.72674 0.0515,-8.99054 0.0873,-17.98761 -0.24469,-26.97317 0,0 37.80634,-19.26329 37.80634,-19.26329 z"
       inkscape:connector-curvature="0" />
    <path
       style="fill:#00ffff"
       id="path3344"
       d="m 193.99075,393.33463 c -0.32804,8.04969 -0.20941,16.1106 -0.16068,24.16483 0.018,6.06924 0.0798,12.13809 0.12308,18.20705 -0.0186,4.66475 0.0309,9.32913 0.021,13.9938 -0.0103,4.18064 0.0268,8.36125 0.0266,12.54189 -0.0272,3.25872 0.0643,6.51636 0.0462,9.77507 0.0153,1.66854 0.004,0.87199 0.0325,2.38966 0,0 -37.98378,19.3537 -37.98378,19.3537 l 0,0 c 0.0287,-1.54265 0.0172,-0.73507 0.0325,-2.42277 -0.0183,-3.2744 0.0736,-6.54775 0.0462,-9.82216 -1.3e-4,-4.1897 0.0369,-8.37936 0.0266,-12.56904 -0.01,-4.67179 0.0395,-9.3433 0.021,-14.01517 0.0432,-6.11077 0.10494,-12.22143 0.12308,-18.33248 0.0481,-7.99956 0.17081,-16.00626 -0.16068,-24.00109 0,0 37.80635,-19.26329 37.80635,-19.26329 z"
       inkscape:connector-curvature="0" />
    <path
       style="fill:#00ffff"
       id="path3346"
       d="m 268.27646,676.19177 c -0.162,5.50677 -0.12555,11.01882 0.004,16.52595 0.002,2.88571 0.0918,5.77156 0.0745,8.65711 0.009,2.25105 -0.001,4.50201 0.0123,6.75303 -0.0358,1.53641 0.009,3.07226 -0.007,4.6087 0,0 -37.97296,19.34819 -37.97296,19.34819 l 0,0 c -0.0166,-1.5339 0.0286,-3.06724 -0.007,-4.60111 0.0137,-2.25522 0.004,-4.51037 0.0123,-6.7656 -0.0176,-2.91084 0.0726,-5.822 0.0745,-8.733 0.1265,-5.50849 0.16893,-11.02193 0.004,-16.52998 0,0 37.80634,-19.26329 37.80634,-19.26329 z"
       inkscape:connector-curvature="0" />
    <path
       style="fill:#00ffff"
       id="path3352"
       d="m 528.27646,613.33463 c -0.20775,6.57209 -0.12044,13.15101 -0.10344,19.72582 -0.0572,6.70333 -0.0177,13.40702 0.002,20.11044 -0.008,5.60823 0.0377,11.21604 0.0693,16.82398 -0.0243,4.6567 0.025,9.31304 0.015,13.96967 0.0276,3.2392 0.0519,6.47819 0.0916,9.71715 -0.0121,2.38369 0.0296,4.76648 -5e-4,7.15017 0.008,1.52077 -4.1e-4,0.79029 0.022,2.19144 0,0 -37.9982,19.36105 -37.9982,19.36105 l 0,0 c 0.0224,-1.41958 0.0144,-0.68162 0.022,-2.2139 -0.0304,-2.3835 0.0119,-4.76613 -5e-4,-7.14965 0.0396,-3.27008 0.064,-6.54019 0.0916,-9.81051 -0.01,-4.66173 0.0394,-9.32318 0.015,-13.98499 0.0315,-5.63148 0.0768,-11.26283 0.0693,-16.8946 0.0196,-6.70406 0.0592,-13.4084 0.002,-20.11237 0.0169,-6.53963 0.10567,-13.0836 -0.10344,-19.62041 0,0 37.80634,-19.26329 37.80634,-19.26329 z"
       inkscape:connector-curvature="0" />
    <path
       style="fill:#00ffff"
       id="path3511"
       d="m 261.36642,313.97056 c -2.5792,6.88334 -3.8511,14.13455 -4.71017,21.40508 -0.62892,6.08704 -0.68824,12.21081 -0.72321,18.32391 -0.01,5.7149 0.0135,11.4298 0.0247,17.14469 0.22746,5.46785 0.0173,10.82498 -1.0525,16.18929 -1.11916,5.05246 -1.44736,10.21719 -1.65699,15.37235 -0.0239,0.92622 -0.0477,1.85244 -0.0715,2.77866 0,0 -37.70603,19.11639 -37.70603,19.11639 l 0,0 c 0.0138,-0.9409 0.0277,-1.8818 0.0416,-2.8227 0.13304,-5.34083 0.30592,-10.70521 1.28004,-15.97241 1.05614,-5.16367 2.08616,-10.13177 1.51071,-15.46681 -0.01,-5.72523 -0.0299,-11.45045 -0.0263,-17.1757 0.0251,-6.26496 0.0671,-12.53911 0.63847,-18.78328 0.78608,-7.45835 2.04238,-14.85017 4.06557,-22.08216 0,0 38.3856,-18.02731 38.3856,-18.02731 z"
       inkscape:connector-curvature="0" />
    <path
       style="fill:#ffff00"
       id="path3515"
       d="m 327.33826,353.53805 c 3.02311,-5.59694 6.66636,-10.80604 10.04869,-16.17828 2.47602,-3.94075 4.76826,-7.98401 6.93377,-12.10244 1.35691,-3.32039 3.39137,-6.24715 5.42095,-9.1737 0,0 39.10189,-16.49417 39.10189,-16.49417 l 0,0 c -2.54833,2.24673 -4.16338,5.16982 -5.98306,8.00165 -1.64086,4.46573 -4.24935,8.61713 -6.87596,12.55669 -2.91148,5.63543 -7.36492,10.31218 -9.84364,16.19235 0,0 -38.80264,17.1979 -38.80264,17.1979 z"
       inkscape:connector-curvature="0" />
  </g>
</svg>
